<svg aria-hidden="true" style="position:absolute;width:0;height:0" xmlns="http://www.w3.org/2000/svg" overflow="hidden"><defs><symbol id="icon-menu" viewBox="0 0 15 15"><path d="M3 5.5v-1h9v1H3zM3 8h9V7H3v1zm0 2.5h9v-1H3v1z"/></symbol><symbol id="icon-close-mob" viewBox="0 0 15 15"><path d="M11.1 4.8l-.7-.7L7.6 7 4.8 4.1l-.7.7L7 7.6l-2.8 2.8.7.7 2.8-2.8 2.8 2.8.7-.7-2.8-2.8 2.8-2.8z"/></symbol><symbol id="icon-yaco" viewBox="0 0 14 15"><path fill="var(--color1, #afb1b8)" d="M1.8 0L4 2H10V8l2.2 2V0H1.8z"/><path fill="var(--color1, #afb1b8)" d="M0 2v9.6h10.2V7.8L4.1 2H0zm8.3 8.2H1.6V3.7h.5v6h6.2v.5zM3 13.4l.2-.5h.2l-.4.7v.4h-.2v-.4l-.3-.7h.2l.2.5zm1 .3h-.4l-.1.3h-.2l.4-1h.2l.4 1H4l-.1-.3zm-.4-.1H4l-.1-.4-.2.4zm1.1.1v-.1l.2-.2v-.1-.1-.2h.4v.4H5l.2.3v-.2h.2v.3l.1.2h-.8v-.3zm.4.2h.1l-.2-.4-.1.2v.1c0 .1.1 0 .2 0zm-.1-.7v.1h.1l.1-.1V13c0-.1 0 0-.1 0H5zm2 .4l-.2.3-.3.1h-.2l-.2-.2v-.3-.3l.2-.2h.5l.1.3h-.2V13h-.2-.2v.7h.4v-.2H7zm1-.1l-.1.3-.2.1-.2.1h-.2l-.2-.2v-.3-.3s0-.2.2-.2h.4l.2.2v.2zm-.3 0v-.3l-.2-.1h-.2v.7h.4v-.3z"/></symbol><symbol id="icon-twitter" viewBox="0 0 15 15"><path  d="M15 2.8c-.6.3-1.2.5-1.8.5a3 3 0 001.4-1.7c-.6.4-1.3.6-2 .8a3 3 0 00-5.2 2.8A8.7 8.7 0 011 2a3.1 3.1 0 001 4 3 3 0 01-1.4-.3 3 3 0 002.5 3 3 3 0 01-1.4.1 3.1 3.1 0 002.8 2.1A6.2 6.2 0 010 12.2a8.7 8.7 0 0013.5-7.8c.6-.4 1-1 1.5-1.6z"/></symbol><symbol id="icon-tagline" viewBox="0 0 12 15"><path fill="var(--color1, #afb1b8)" d="M4.9.8h.3l1 .2V.2A6 6 0 004.7 0h-.1A8.6 8.6 0 00.2 1.2v8.2a9.2 9.2 0 014-1.1h.3v-.9a9.9 9.9 0 00-3.2.6h-.2V1.8A8.2 8.2 0 014.7.7H4.9z"/><path fill="var(--color1, #afb1b8)" d="M7 1.7a7.4 7.4 0 01-1.6-.2v8.1c.5.2 1 .2 1.6.2a8.6 8.6 0 004.3-1.2v-8A9.2 9.2 0 017 1.7zm3.2.2l.3-.1V8l-.1.1a8 8 0 01-4 .8h-.2V2.3H7a9.9 9.9 0 003.2-.6zM.8 12.2a.4.4 0 00-.3-.2H.3a.4.4 0 00-.3.3v1.5l.2.2h.4a.5.5 0 00.3-.4v-.1H.6v.2a.2.2 0 01-.1 0H.4c-.1 0 0 0 0 0l-.1-.1v-1-.2h.2l.1.1v.1H1a.5.5 0 00-.1-.4zM2.5 12.2A.5.5 0 002 12h-.2a.5.5 0 00-.1.4v1.3l.1.1.2.1a.5.5 0 00.3 0h.2l.1-.2v-1.2-.3l-.1-.1zm-.1 1.4l-.1.1H2v-1.1-.2H2.3v1.1zM4.7 14v-2h-.3l-.3 1.1-.4-1h-.3v2h.3v-1.3l.3.9h.2l.2-.9V14h.3zM6.3 12.2l-.1-.1h-.7v2h.3v-.8h.4l.2-.2v-.2a1.4 1.4 0 000-.5v-.2zm-.1.6v.1H6L6 13h-.2v-.7H6.1v.5zM7.7 12h-.3L7 14h.3v-.4h.5v.4h.3l-.4-2zm-.3 1.3l.2-.7.1.7h-.3zM9.5 13.3L9.1 12h-.3v2h.3v-1.2l.4 1.1h.3v-2h-.3v1.3zM11.2 12l-.2.9-.2-.8h-.3l.4 1.1v.8h.2v-.8l.4-1.1h-.3zM0 14.6h.1v.4h.1v-.4h.2H0zM1.1 14.5L1 15l.1-.1H1.4l-.2-.4zm0 .3l.1-.2v.2zM2.3 14.8v.1h-.1v-.1-.2H2.2V15l.2.1h.2v-.3h-.2v.1zM3.4 14.5v.5h.3-.3v-.5zM4.4 14.5v.5-.5zM5.4 14.8l-.2-.3H5v.5-.3l.3.3v-.5.3zM6.2 14.8h.3-.3v-.2h.3H6v.4h.4-.3v-.2zM8.3 14.7h-.1v-.2H8v.5-.2h.2v.2h.1v-.5.2zM9.2 14.8h.2-.2v-.2h.3H9v.4h.4-.3v-.2zM10.4 14.8l.1-.1v-.1c0-.1 0 0 0 0H10v.4h.1v-.2h.1l.1.2h.1v-.1l-.1-.1zm-.1 0v-.2h.1v.1h-.1zM11.3 14.8h.2-.2v-.2h.2-.3v.4h.3-.2v-.2z"/></symbol><symbol id="icon-send" viewBox="0 0 15 15"><path fill="var(--color2, #fff)" d="M15 0L0 8.4l4.8 1.8 7.4-7L6.6 11V15l2.7-3.1 3.4 1.2L15 0z"/></symbol><symbol id="icon-phone" viewBox="0 0 10 15"><path  d="M8.5 0h-7C.7 0 0 .6 0 1.4v12.1c0 .8.7 1.4 1.5 1.4h7c.8 0 1.5-.6 1.5-1.4V1.4C10 .6 9.3 0 8.5 0zm-7 1h7c.3 0 .5.1.5.4v9.8H1V1.4c0-.3.2-.5.5-.5zm7 13h-7c-.3 0-.5-.2-.5-.5v-1.4h8v1.4c0 .3-.2.5-.5.5z"/></symbol><symbol id="icon-linkedin" viewBox="0 0 15 15"><path  d="M15 15V9.5c0-2.7-.6-4.8-3.7-4.8-1.5 0-2.6.9-3 1.7V5h-3v10h3.1v-5c0-1.3.3-2.5 1.9-2.5 1.6 0 1.6 1.5 1.6 2.6V15h3zM.2 5h3.2v10H.2V5zM1.8 0a1.8 1.8 0 000 3.6 1.8 1.8 0 100-3.6z"/></symbol><symbol id="icon-instagram" viewBox="0 0 15 15"><path  d="M15 4.4c0-.8-.2-1.3-.4-1.8s-.4-1-.8-1.3c-.4-.4-.9-.7-1.4-.9-.4-.2-1-.3-1.8-.4a51.3 51.3 0 00-8 .4c-.5.2-1 .5-1.3.9-.4.3-.7.8-.9 1.3a51.3 51.3 0 000 9.8c.2.5.5 1 .9 1.3l1.3 1 1.8.3a55.1 55.1 0 008-.4c1-.4 1.8-1.2 2.2-2.2l.4-1.8V7.5v-3zm-1.4 6.1a4 4 0 01-.2 1.4c-.3.7-.8 1.2-1.4 1.4a53 53 0 01-8.8 0c-.4 0-.7-.3-1-.5-.2-.3-.4-.5-.5-.9l-.3-1.4a53 53 0 01.3-7.4l.6-.9.8-.5c.3-.1.7-.3 1.4-.3a53 53 0 017.5.3c.3 0 .6.3.8.5l.6.9c0 .2.2.6.2 1.4a53 53 0 010 6z"/><path  d="M7.5 3.6a3.9 3.9 0 100 7.8 3.9 3.9 0 000-7.8zm0 6.4a2.5 2.5 0 110-5 2.5 2.5 0 010 5zM12.4 3.5a.9.9 0 11-1.8 0 .9.9 0 011.8 0z"/></symbol><symbol id="icon-foster" viewBox="0 0 28 15"><path fill="var(--color4, #2196f3)" d="M4.3 4.5C3.5 4.5 3 5 3 5.9c0 .7.6 1.4 1.4 1.4.8 0 1.5-.7 1.5-1.4 0-.8-.7-1.4-1.5-1.4zM14.9 4c0-1-.5-2-1.2-2.8S11.8 0 10.7 0c-1 0-2.1.4-2.9 1.2S6.6 3 6.6 4v6s8.3-1 8.3-6zM0 11.9c0 .7.3 1.4.8 2s1.3.8 2 .8c.8 0 1.6-.3 2.1-.9s.9-1.2.9-2v-4s-5.8.6-5.8 4zm2.9.7a.8.8 0 01-.7-.5.7.7 0 01.1-.8l.4-.2a.8.8 0 01.8.3.7.7 0 010 1 .8.8 0 01-.6.2zM8.8 12.1h-.6v.6h-.3v-1.4h1v.2h-.7v.4h.6v.2zm1.4 0v.3l-.3.3h-.6l-.3-.3V12v-.4l.3-.3h.6l.2.3.1.4zM10 12v-.4l-.3-.1-.2.1-.1.4v.4l.3.1.2-.1.1-.4zm1.3.4v-.2h-.3l-.2-.2c-.2 0-.3-.2-.3-.4l.1-.2.2-.1a.7.7 0 01.6 0l.2.2v.2h-.3v-.2h-.4v.2l.2.2c.2 0 .3 0 .4.2l.1.2-.1.4h-.7l-.2-.2-.1-.2h.3c0 .1 0 .2.3.2h.2v-.1zm1.7-.9h-.5v1.2h-.3v-1.2h-.5v-.2H13v.2zm1 .6h-.6v.4h.7v.2h-1v-1.4h1v.2h-.7v.4h.6v.2zm.9.1h-.3v.5h-.3v-1.4h1l.1.4v.3l-.3.1.4.6H15l-.2-.5zm-.3-.3h.4l.1-.2v-.1l-.2-.1h-.3v.4zm1.9.3v.5H16v-1.4h.8l.2.2.1.2-.1.4-.5.1h-.2zm0-.2h.4l.1-.3v-.1l-.2-.1h-.3v.5zm2 .1h-.7v.4h.7v.2h-1v-1.4h1v.2h-.7v.4h.6v.2zm1.3-.6h-.4v1.2H19v-1.2h-.5v-.2h1.2v.2zm1.1.6h-.6v.4h.7v.2h-1v-1.4h1v.2h-.7v.4h.6v.2zm.8.1h-.2v.5h-.3v-1.4h.9l.2.4v.3l-.3.1.3.6H22l-.3-.5zm-.2-.3h.4v-.2-.1l-.2-.1h-.2v.4zm1.8.5v-.2h-.3l-.2-.2c-.2 0-.3-.2-.3-.4v-.2l.3-.1a.7.7 0 01.5 0c.1 0 .2 0 .2.2l.1.2h-.3v-.2h-.4v.2l.2.2c.2 0 .3 0 .4.2l.1.2-.1.4h-.7l-.3-.2v-.2h.3c0 .1 0 .2.3.2h.1l.1-.1z"/></symbol><symbol id="icon-facebook" viewBox="0 0 15 15"><path  d="M10 2.5h1.4V0l-2-.1C7.4 0 6 1.2 6 3.5v2.1H4v2.7H6V15h2.7V8.3h2.1l.3-2.7H8.7V3.8c0-.8.2-1.3 1.3-1.3z"/></symbol><symbol id="icon-envelope" viewBox="0 0 20 15"><path  d="M18.1 0H2C.9 0 0 .8 0 1.8v10.5c0 1 .8 1.7 1.9 1.7H18c1 0 1.9-.8 1.9-1.7V1.7c0-1-.8-1.7-1.9-1.7zm0 1.2h.3L10 8 1.6 1.2h16.5zm0 11.6H2c-.4 0-.6-.2-.6-.5V2.4l8.3 6.8.4.1.4-.1 8.3-6.8v9.9c0 .3-.2.5-.6.5z"/></symbol><symbol id="icon-computer" viewBox="0 0 15 15"><path fill="var(--color4, #2196f3)" d="M7 7h.5v2.3H7V7zM9 8h.5v1.3H9V8zM5 8.8h.5v.5H5v-.5zM3.5 8.5H4v.8h-.5v-.8z"/><path fill="var(--color5, #212121)" d="M.8 13.3h12c.4 0 .7-.4.7-.8v-1c0-.4-.3-.7-.8-.7h-.2V4.5l1.4-1.3a.8.8 0 10-.3-.4l-1.1 1v-.5c0-.4-.3-.8-.8-.8h-10c-.4 0-.7.4-.7.8v7.5H.8c-.5 0-.8.3-.8.7v1c0 .4.3.8.8.8zm13.4-11a.3.3 0 110 .5.3.3 0 010-.5zm-12.7 1c0-.2.1-.3.2-.3h10c.2 0 .3.1.3.3v1l-.5.5v-1c0-.2-.1-.3-.3-.3h-9s-.2.1-.2.3V10c0 .2.1.3.2.3h9c.2 0 .3-.1.3-.3V5.5L12 5v5.8H1.5V3.3zm2.2 3.2a.7.7 0 10.6 1.3l.8.4h.3l1.9-2L9 7.4h.3L11 6v3.8H2.5V4H11v1.3L9.2 6.9 7.4 5.6h-.3L5 7.7l-.6-.3v-.1c0-.4-.3-.8-.8-.8zm.3.8a.3.3 0 11-.5 0 .3.3 0 01.5 0zm1.5 4H8v.2c0 .2-.1.3-.3.3h-2a.3.3 0 01-.2-.3v-.2zm-5 .2c0-.1.1-.2.3-.2H5v.2c0 .4.3.8.7.8h2c.5 0 .8-.4.8-.8v-.2h4.2c.2 0 .3 0 .3.2v1c0 .1-.1.3-.3.3H.7a.3.3 0 01-.2-.3v-1z"/></symbol><symbol id="icon-companytag" viewBox="0 0 29 15"><path fill="var(--color1, #afb1b8)" d="M14.6 7a1 1 0 01-.2-.7v-1c0-.3 0-.5.2-.7s.3-.2.6-.2.5 0 .6.2c.2.2.2.4.2.6v.2h-.5v-.2V5v-.2h-.3-.2V6.7l.1.1c.1.1 0 0 .1 0h.2v-.2l.1-.2v-.2h.5v.2c0 .2 0 .4-.2.6l-.6.2c-.3 0-.5 0-.6-.2zM16.7 7l-.2-.7v-1c0-.3 0-.5.2-.7s.3-.2.6-.2.5 0 .7.2.2.4.2.7v1L18 7c-.1.2-.4.2-.7.2s-.5 0-.6-.2zm.9-.3V5.2v-.3a.2.2 0 00-.3-.1.3.3 0 00-.2 0V6.8a.3.3 0 00.2.1.3.3 0 00.3 0zM18.8 4.4h.5l.4 2 .4-2h.6v2.8h-.4v-2l-.4 2h-.3l-.5-2v2h-.4V4.4zM21.3 4.4h.9c.5 0 .7.3.7.8s-.3.8-.8.8h-.3v1.2h-.5V4.4zm.8 1.2a.4.4 0 00.2 0l.1-.4V5v-.1h-.1l-.2-.1h-.3v.8h.3zM23.7 4.4h.5l.6 2.8h-.5l-.1-.7h-.5l-.1.7H23l.6-2.8zm.4 1.8L24 5.1l-.2 1.1h.4zM25.3 4.4h.3l.7 1.6V4.4h.5v2.8h-.4l-.7-1.7v1.7h-.4V4.4zM27.8 6.1l-.6-1.7h.5l.3 1.1.4-1h.5L28.3 6v1h-.5v-1zM15.4 8.4v.1H15v1.1h-.2V8.5h-.4v-.1h1zM16.7 9.6h-.1l-.2-.3h-.6l-.1.3h-.2l.5-1.2h.2l.5 1.2zm-.8-.5h.5l-.2-.5H16l-.2.5zM17.6 9.5h.1a.6.6 0 00.2 0V9h-.1V9h.3v.5a.8.8 0 01-.3.1h-.2-.3l-.2-.2A.6.6 0 0117 9v-.3a.6.6 0 01.3-.3h.5a.7.7 0 01.3.1v.1H18a.6.6 0 00-.4-.1h-.2l-.1.1-.1.2v.4a.4.4 0 00.4.3zM19.3 9.5h.6v.1H19V8.4h.2v1zM20.5 9.6h-.2V8.4h.2v1.2zM21.1 8.4l.8 1V8.2h.2v1.3H22l-.8-1v1H21V8.4h.1zM23.4 8.4h-.6V9h.5V9h-.5v.5h.6v.1h-.8V8.4h.8zM4.7.6l7.9 2.2v7.4l-8-2V.5zM4.2 0v8.5l9 2.4V2.4L4.1 0z"/><path fill="var(--color1, #afb1b8)" d="M9 14.8l-9-2.4V4l9 2.4v8.5zM4.3.5l7.8 2.1-3.3 3.2L1 3.7 4.3.5zM4.2 0L0 4l9 2.3L13 2.4 4.1 0zM9.5 14.3L13 11l-3.6-1v4.4z"/></symbol><symbol id="icon-company" viewBox="0 0 14 15"><path fill="var(--color1, #afb1b8)" d="M2.2 14.6h.1l-.2.2h-.3-.2a.6.6 0 01-.4-.3.8.8 0 010-.6.6.6 0 01.4-.3H2l.2.1v.1H2a.6.6 0 00-.3 0h-.2l-.1.2v.4l.1.2h.1l.2.1H2a.4.4 0 00.3-.1zM4.3 14.2v.3l-.2.2-.2.1h-.6l-.2-.1-.1-.2v-.6l.1-.2.2-.1H4l.2.1.1.2v.3zm-.2 0V14l-.1-.2h-.2c-.1-.1-.3-.1-.4 0a.4.4 0 00-.2.2V14.6h.2c.1.1.3.1.4 0a.4.4 0 00.3-.2v-.2zM5.7 14.4l.5-.8h.2v1.2h-.1V14l-.5.7h-.1l-.5-.8v1H5v-1.2h.2l.5.8zM7.4 14.4v.4h-.2v-1.2H8l.1.2v.4l-.2.1h-.5zm0-.2h.4L8 14V14a.2.2 0 000-.2l-.3-.1h-.2v.5zM9.8 14.8h-.1l-.2-.3H9l-.1.3h-.2l.5-1.2h.2l.5 1.2zm-.9-.4h.6l-.3-.6-.3.6zM10.6 13.6l.8 1v-1.1h.2v1.3h-.1l-.9-1V15h-.1v-1.3h.1zM13 14.3v.5h-.3v-.5l-.5-.7h.2l.4.5v0l.4-.5h.2l-.5.7zM5.6 11.4h.2a6.4 6.4 0 004-6L8.5 4.1c.3 1.4.1 2.8-.4 4s-1.3 2.5-2.5 3.3z"/><path fill="var(--color1, #afb1b8)" d="M5.1 11.3c1.3-.8 2.2-2 2.7-3.3s.6-2.8.3-4.2L6 2a8.4 8.4 0 01-1 9.3zM11.6 6.9a6.6 6.6 0 01-3.3 4.3c.9-.3 1.7-.7 2.5-1.3s1.2-1.4 1.6-2.3l-.8-.7z"/><path fill="var(--color1, #afb1b8)" d="M11.3 6.7l-1.1-1a6.7 6.7 0 01-3.7 5.8l.7-.1c1-.4 2-1 2.7-1.9s1.2-1.8 1.4-2.8zM5.3 1.2L4 0C2.8.4 1.8 1.2 1 2.2S0 4.3 0 5.5c0 1.3.5 2.6 1.3 3.7s2 1.7 3.4 2a8.3 8.3 0 00.6-10zM14.3 6.5c0-1.6-.7-3-1.8-4.2S9.7.6 8 .6c-.8 0-1.5.1-2.2.4l8 7.6c.3-.7.4-1.4.4-2.1z"/></symbol><symbol id="icon-clock" viewBox="0 0 15 15"><path fill="var(--color5, #212121)" d="M14.7 7.2A7.2 7.2 0 105.4 14h.2l.1-.2 1.8-5.7a.9.9 0 10-.4-1.7L4.7 4a.3.3 0 00-.4.4l2.4 2.4c-.2.4 0 .8.2 1l-1.7 5.5a6.6 6.6 0 115-.1l-.2-.9a.3.3 0 00-.5-.2l-1.8 1.6a.3.3 0 00.1.6l2.3.7a.3.3 0 00.4-.4l-.2-.8a7.2 7.2 0 004.4-6.6zm-7.2-.3a.3.3 0 110 .6.3.3 0 010-.6zm1 7l1-1 .3 1.4-1.3-.5z"/><path fill="var(--color4, #2196f3)" d="M7.2 1.5V2a.3.3 0 00.6 0v-.6a.3.3 0 00-.6 0zM1.8 6.9a.3.3 0 000 .6h.6a.3.3 0 000-.6h-.6zM13.2 7.5a.3.3 0 000-.6h-.6a.3.3 0 000 .6h.6z"/></symbol><symbol id="icon-brand" viewBox="0 0 19 15"><path fill="var(--color1, #afb1b8)" d="M1.4 12.5l.1.4a.5.5 0 01-.1.4l-.5.1H0v-2h.9l.4.1a.5.5 0 01.2.4l-.1.3-.3.2.3.1zm-1-.3H1V12 12a.3.3 0 000-.2l-.2-.1H.4v.5zm.6.8a.3.3 0 00.1-.2v-.1-.1H.3v.5H1zM3.2 13.4l-.5-.8h-.2v.8h-.4v-2H3l.5.1a.7.7 0 010 .9c0 .1-.1.2-.3.2l.5.8h-.4zm-.7-1H3c.2 0 .3-.2.3-.4a.3.3 0 000-.2h-.7v.5zM5.4 13h-.8l-.1.4H4l.8-2h.4l.8 2h-.4l-.2-.4zm0-.3l-.4-.9-.3.9h.6zM8.2 13.4h-.4L7 12v1.4h-.4v-2h.4l1 1.4v-1.4h.3v2zM10.5 13l-.3.3-.6.1H9v-2h.7l.6.1c.1 0 .3.2.3.4l.2.5-.2.5zm-.4-.1a.8.8 0 000-1 .7.7 0 00-.5-.2h-.3V13h.3l.5-.1zM5.7 0s5.2 2 5.1 4.9v4.8S5.6 7.7 5.7 5V0zM15.5 8.6c1-.7 2.1-1.1 3.3-1.2V5.8a6.9 6.9 0 00-3.3 2.8z"/><path fill="var(--color1, #afb1b8)" d="M14.9 9c.8-1.6 2.2-2.8 4-3.5V1.1s-7.5 2.9-7.4 7V15l.9-.4V14c.1-2 1-3.7 2.5-5z"/><path fill="var(--color1, #afb1b8)" d="M14.2 11.6l.2-1.4a6.7 6.7 0 00-1.5 4.2l1.4-.8c-.1-.6-.2-1.3-.1-2zM14.5 11.7v1.8c2.1-1.2 4.4-3.1 4.3-5.4v-.2c-1.4.1-2.8.8-3.9 1.8-.2.6-.4 1.3-.4 2z"/></symbol><symbol id="icon-astronaut" viewBox="0 0 15 15"><path fill="var(--color4, #2196f3)" d="M15 2.1l-.2-.1-1-.2-.3-.8c-.1-.2-.4-.2-.5 0l-.4.8-.9.2-.2.1.1.3.7.6-.2.9a.3.3 0 00.4.3l.8-.5.8.5h.2l.1-.3-.1-.9.6-.6V2zm-1.2.6v.8l-.4-.3a.3.3 0 00-.3 0l-.4.3V3v-.3l-.4-.3.5-.1.2-.1.3-.5.2.5.2.1h.5l-.4.4zM12.3 9.6h-.6v.5h.6v-.5zM12.3 10.6h-.6v.5h.6v-.5zM12.8 10.1h-.6v.5h.6v-.5zM11.8 10.1h-.6v.5h.6v-.5zM10.5 12.4H10v.5h.5v-.5zM10.5 13.4H10v.5h.5v-.5zM11 12.9h-.5v.5h.5v-.5zM10 12.9h-.5v.5h.5v-.5zM7.5 11.4H7v.5h.5v-.5zM7.5 12.4H7v.5h.5v-.5zM8 11.9h-.5v.5H8v-.5zM7 11.9h-.5v.5H7v-.5zM2.8 2.9h-.5v.5h.5v-.5zM2.8 3.9h-.5v.5h.5v-.5zM3.3 3.4h-.5v.5h.5v-.5zM2.3 3.4h-.5v.5h.4v-.5z"/><path fill="var(--color5, #212121)" d="M11.6 6.6a.8.8 0 00-.6-.3c-.2 0-.4 0-.6.2l-.6.4-.9.7-.6-.3A3.3 3.3 0 007 1.1a3.3 3.3 0 00-2.8 5H3h-.1L1.3 7l-.9.4A.8.8 0 00.8 9l.4-.1.7-.4 1-.5h.7L1 10.4l-.6.6a.8.8 0 000 1.1.8.8 0 001.1 0l.6-.6.8-.6.5.4-.9.9-.6.6a.8.8 0 000 1 .8.8 0 001.1 0l1.6-1.5.5-.5L7.5 9l1.7.3h.1l1.6-1v-.1l.6-.6c.3-.2.3-.7 0-1zM1 8.3H.7l-.2-.1.1-.4.7-.3.2.6-.5.2zm1.6-.8l-.7.3-.2-.6 1-.4v.7zm7.1-3.1c0 .4 0 .8-.3 1.2l-2-1c0-.2 0-.4-.3-.6l.7-2.2c1.1.3 2 1.3 2 2.6zm-5.5 0a2.8 2.8 0 013.1-2.8L6.6 4c-.5 0-.9.4-.9.8s.4 1 .9 1c.3 0 .6-.3.8-.5l1.8.8a2.8 2.8 0 01-5-1.6zm2.8.3c0 .3-.2.4-.4.4s-.4-.1-.4-.4c0-.2.2-.3.4-.3s.4.1.4.3zm-5.8 7c-.2.2-.3.2-.4 0a.3.3 0 010-.3l.4-.5.4.4-.4.5zm1.5 1.8a.3.3 0 01-.5-.2v-.2l.5-.4.4.4-.4.4zM4.3 12l-.8.8-.4-.4.8-.8v-.1-.1-.1l-.8-.8a.2.2 0 00-.2 0l-1 .6-.3-.4 1-1.1 2.1 2-.4.4zm3.2-3.3a.2.2 0 00-.2 0v.1L5 11.1l-2-2 1.3-1.3v-.4H3.2v-.8h1.4a3.3 3.3 0 003 1l1.1.5.1.3.1.4-1.4-.2zm1.9.1L9.2 8l.7-.5.5.6-1 .6zM11 7.4l-.3.3-.5-.5.4-.3.3-.1.2.1v.5z"/><path fill="var(--color5, #212121)" d="M6.4 8.7l-1-1a.3.3 0 00-.4 0l-1 1V9l1 1 .2.1h.2l1-1v-.2-.2zm-1.2.8L4.5 9l.7-.7.6.7-.6.6zM8 2.4v.5s.7.2.7 1h.5c0-1-.7-1.4-1.2-1.5zM9.2 4.4h-.5v.5h.5v-.5z"/></symbol><symbol id="icon-antenna" viewBox="0 0 15 15"><path fill="var(--color5, #212121)" d="M14.4 10.4l-4-4 .5-2.2h.4a1 1 0 10-1-.6L8 3.9 4.2 0 4 0H4L3 .9V1l.4.4a7 7 0 001.3 8.3V13h-3c-.7 0-1.3.6-1.3 1.2v.5c0 .2.1.3.3.3h11.5s.2-.1.2-.3v-.5c0-.6-.6-1.2-1.2-1.2h-3v-1.3A7 7 0 0013 11l.4.4H13.7l.7-.7v-.3zM11 2.9a.5.5 0 11.4.9.5.5 0 01-.4-.9zm-.6 1.7L10 5.9l-.5-.5.8-.8zM10 4l-.9 1-.7-.8 1.6-.2zm1.3 9.4c.4 0 .7.3.7.8v.2H1v-.3c0-.4.3-.7.8-.7h9.5zm-3.5-1v.5H5.3v-.5h2.5zM5.3 12v-1.9c0-.6.5-1.1 1.2-1.1s1.3.5 1.3 1.1V12H5.3zm3-.8v-1.1c0-.9-.8-1.6-1.8-1.6-.6 0-1.2.3-1.5.8-2-2-2.4-5-1.1-7.4l8.7 8.8c-1.3.6-2.9.8-4.3.5zm5.2-.3L3.7.9 4 .7l3.7 3.7 6.2 6.2-.4.4z"/><path fill="var(--color4, #2196f3)" d="M6.5 9.5a.7.7 0 100 1.5.8.8 0 000-1.5zm.2 1h-.2a.3.3 0 01-.2-.4l.2-.1a.3.3 0 01.2.4z"/></symbol><symbol id="icon-close" viewBox="0 0 15 15"><path d="M12.5 3.4l-1-.9L8 6.2 4.3 2.5l-1 1L7 7l-3.7 3.6 1 1L7.9 8l3.7 3.7.9-1-3.7-3.6 3.7-3.7z"/></symbol><symbol id="icon-person" viewBox="0 0 15 15"><path d="M7.5 7.5a2.5 2.5 0 100-5 2.5 2.5 0 000 5zm0 1.3c-1.7 0-5 .8-5 2.4v.7c0 .3.3.6.6.6H12c.3 0 .6-.3.6-.6v-.7c0-1.6-3.3-2.4-5-2.4z"/></symbol><symbol id="icon-phone-black" viewBox="0 0 15 15"><path d="M11.7 9.3L10 9c-.3 0-.7 0-1 .3l-1 1.1a9 9 0 01-4-4l1-1c.3-.3.5-.7.4-1l-.2-1.6c0-.6-.5-1-1.2-1h-1c-.7 0-1.2.5-1.2 1.2.3 5.2 4.4 9.3 9.6 9.6.7 0 1.2-.5 1.2-1.2v-1c0-.6-.4-1.2-1-1.2z"/></symbol><symbol id="icon-email-black" viewBox="0 0 15 15"><path d="M12.5 2.5h-10c-.7 0-1.2.6-1.2 1.3v7.5c0 .6.5 1.2 1.2 1.2h10c.7 0 1.3-.6 1.3-1.3V3.8c0-.7-.6-1.3-1.3-1.3zm-.3 2.7L7.8 7.9h-.6L2.7 5.2a.5.5 0 11.6-.9l4.2 2.6 4.2-2.6a.5.5 0 11.6.9z"/></symbol></defs></svg>